<svg id="Capa_1" enable-background="new 0 0 511.85 511.85" height="512" viewBox="0 0 511.85 511.85" width="512" xmlns="http://www.w3.org/2000/svg"><g><g><path d="m472.377 0h-133.45c-4.143 0-7.5 3.357-7.5 7.5s3.357 7.5 7.5 7.5h133.45c7.341 0 13.313 5.972 13.313 13.313v455.225c0 7.341-5.972 13.313-13.313 13.313h-432.905c-7.341 0-13.313-5.972-13.313-13.313v-455.225c.001-7.341 5.972-13.313 13.313-13.313h264.288c4.143 0 7.5-3.357 7.5-7.5s-3.357-7.5-7.5-7.5h-264.288c-15.611 0-28.312 12.701-28.312 28.313v455.225c0 15.611 12.701 28.313 28.313 28.313h432.905c15.611 0 28.313-12.701 28.313-28.313v-455.225c-.001-15.612-12.702-28.313-28.314-28.313z"/><path d="m54.594 73.79v364.27c0 15.611 12.701 28.313 28.313 28.313h346.035c15.612 0 28.313-12.701 28.313-28.313v-364.27c0-15.611-12.701-28.313-28.313-28.313h-346.035c-15.612.001-28.313 12.702-28.313 28.313zm387.661 0v364.27c0 7.341-5.973 13.313-13.313 13.313h-346.035c-7.341 0-13.313-5.972-13.313-13.313v-364.27c0-7.341 5.972-13.313 13.313-13.313h346.035c7.341.001 13.313 5.972 13.313 13.313z"/><path d="m143.058 380.803c15.189 0 27.547-12.357 27.547-27.546v-15.659c0-4.143-3.357-7.5-7.5-7.5s-7.5 3.357-7.5 7.5v15.659c0 6.918-5.629 12.546-12.547 12.546s-12.546-5.628-12.546-12.546v-194.664c0-3.489 1.197-6.386 3.651-8.848 2.453-2.454 5.446-3.698 8.895-3.698h54.202c18.028 0 35.123 6.978 48.135 19.647 13.169 12.821 20.422 29.809 20.422 47.833s-7.253 35.012-20.422 47.833c-13.012 12.67-30.106 19.647-48.135 19.647-8.074 0-23.052.07-34.195.13-4.126.022-7.46 3.373-7.46 7.5v14.118c0 4.143 3.357 7.5 7.5 7.5s7.5-3.357 7.5-7.5v-6.655c9.672-.048 20.313-.092 26.655-.092 21.959 0 42.771-8.488 58.6-23.899 16.094-15.67 24.957-36.475 24.957-58.581s-8.863-42.911-24.957-58.581c-15.829-15.412-36.641-23.899-58.6-23.899h-54.202c-7.465 0-14.208 2.798-19.511 8.1-5.257 5.274-8.035 11.999-8.035 19.446v194.664c0 15.187 12.358 27.545 27.546 27.545z"/><path d="m158.094 253.874c1.404 1.39 3.3 2.169 5.275 2.169h.039c16.133-.085 27.522-.128 33.852-.128 23.56 0 43.464-19.411 43.464-42.388s-19.904-42.387-43.464-42.387h-34.096c-1.993 0-3.903.793-5.311 2.204s-2.195 3.324-2.189 5.317c.036 12.782.075 28.148.075 34.866 0 6.437.043 17.903.13 35.054.01 1.989.811 3.894 2.225 5.293zm39.166-67.734c15.429 0 28.464 12.542 28.464 27.388s-13.035 27.388-28.464 27.388c-5.322 0-14.193.03-26.428.09-.063-13.024-.118-44.039-.147-54.865h26.575z"/><path d="m324.955 380.803c15.189 0 27.547-12.357 27.547-27.546v-66.411c.642-1.337 2.878-5.273 9.601-12.352 4.223-4.443 14.442-11.087 20.013-14.175 13.281-7.343 18.123-24.126 10.792-37.413-7.337-13.3-24.128-18.146-37.428-10.813-1.11.613-5.84 3.264-11.744 7.147-5.038-4.695-11.742-7.427-18.78-7.427-15.188 0-27.546 12.357-27.546 27.547v113.896c-.001 15.189 12.356 27.547 27.545 27.547zm-12.546-141.442c0-6.918 5.628-12.547 12.546-12.547 4.445 0 8.602 2.403 10.848 6.272 1.061 1.827 2.843 3.123 4.907 3.567 2.065.444 4.223-.002 5.941-1.231 7.725-5.523 14.747-9.463 16.074-10.195 6.06-3.345 13.706-1.132 17.047 4.925h.001c3.339 6.052 1.133 13.696-4.922 17.044-4.406 2.441-17.24 10.249-23.623 16.967-10.043 10.571-12.929 16.672-13.58 19.929-.098.484-.146.979-.146 1.473v67.692c0 6.918-5.629 12.546-12.547 12.546s-12.546-5.628-12.546-12.546z"/></g></g></svg>