<svg id="Capa_1" enable-background="new 0 0 511.881 511.881" height="512" viewBox="0 0 511.881 511.881" width="512" xmlns="http://www.w3.org/2000/svg"><g><g><g><path d="m472.406 0h-432.932c-15.612 0-28.313 12.702-28.313 28.314v455.253c0 15.612 12.701 28.314 28.313 28.314h243.533c4.143 0 7.5-3.358 7.5-7.5s-3.357-7.5-7.5-7.5h-243.533c-7.341 0-13.313-5.973-13.313-13.314v-455.253c0-7.341 5.972-13.314 13.313-13.314h432.932c7.342 0 13.314 5.973 13.314 13.314v455.253c0 7.341-5.973 13.314-13.314 13.314h-154.399c-4.143 0-7.5 3.358-7.5 7.5s3.357 7.5 7.5 7.5h154.398c15.612 0 28.314-12.702 28.314-28.314v-455.253c.001-15.612-12.701-28.314-28.313-28.314z"/><path d="m457.283 438.086v-364.291c0-15.613-12.702-28.314-28.314-28.314h-346.056c-15.612 0-28.314 12.702-28.314 28.314v364.291c0 15.613 12.702 28.314 28.314 28.314h346.056c15.612 0 28.314-12.701 28.314-28.314zm-387.685 0v-364.291c0-7.342 5.973-13.314 13.314-13.314h346.056c7.342 0 13.314 5.973 13.314 13.314v364.291c0 7.342-5.973 13.314-13.314 13.314h-346.055c-7.342 0-13.315-5.972-13.315-13.314z"/><path d="m246.934 154.294c-15.83-15.413-36.642-23.901-58.603-23.901h-54.205c-7.465 0-14.209 2.798-19.512 8.101-5.258 5.276-8.036 12-8.036 19.447v79.796c0 4.142 3.357 7.5 7.5 7.5s7.5-3.358 7.5-7.5v-79.797c0-3.489 1.197-6.387 3.652-8.85 2.454-2.454 5.446-3.698 8.896-3.698h54.205c18.029 0 35.125 6.978 48.138 19.648 13.171 12.823 20.424 29.812 20.424 47.837s-7.253 35.014-20.424 47.837c-13.013 12.67-30.108 19.648-48.138 19.648-7.998 0-23.012.071-34.197.13-4.126.022-7.46 3.374-7.46 7.5v64.623c0 6.919-5.629 12.548-12.548 12.548s-12.548-5.629-12.548-12.548v-79.795c0-4.142-3.357-7.5-7.5-7.5s-7.5 3.358-7.5 7.5v79.796c0 15.19 12.358 27.548 27.548 27.548s27.548-12.358 27.548-27.548v-57.161c9.706-.048 20.368-.092 26.657-.092 21.961 0 42.773-8.488 58.603-23.901 16.095-15.671 24.959-36.477 24.959-58.584s-8.864-42.913-24.959-58.584z"/><path d="m149.164 253.227c1.404 1.39 3.3 2.169 5.275 2.169h.04c11.048-.059 25.89-.128 33.853-.128 23.561 0 43.466-19.412 43.466-42.39s-19.905-42.39-43.466-42.39h-34.098c-1.993 0-3.903.793-5.311 2.204s-2.195 3.324-2.189 5.317c.036 12.783.075 28.15.075 34.869 0 6.438.043 17.905.13 35.056.01 1.99.811 3.894 2.225 5.293zm39.168-67.739c15.43 0 28.466 12.543 28.466 27.39s-13.036 27.39-28.466 27.39c-6.289 0-16.831.043-26.43.09-.063-13.025-.093-22.054-.093-27.48 0-5.444-.025-16.563-.055-27.39z"/><path d="m392.309 222.492c-6.403-5.197-15.1-9.465-23.861-11.708-22.222-5.691-46.636-2.461-65.304 8.639-11.041 6.566-18.849 15.308-22.578 25.278-6.482 17.329-3 37.378 8.665 49.891 11.563 12.402 27.702 19.342 41.922 24.874 3.332 1.296 6.713 2.542 9.981 3.748l1.058.39c1.494.551 2.742 1.13 3.743 1.668-1.604.612-4.217 1.266-8.391 1.586-7.236.559-13.352-1.42-19.817-6.408-11.647-8.982-27.326-8.949-37.282.075-5.763 5.222-9.025 12.678-8.952 20.458.077 8.158 4.122 16.096 11.389 22.353 2.718 2.34 5.848 4.444 9.57 6.433 14.292 7.639 29.963 11.726 44.699 11.726 1.797 0 3.581-.061 5.346-.184 12.309-.854 24.588-4.873 34.576-11.314 13.192-8.508 22.262-21.807 24.883-36.488 2.318-12.983-.613-26.203-8.253-37.224-7.283-10.504-18.267-18.52-32.646-23.824-6.478-2.389-12.767-4.895-17.939-7.022 4.973-1.414 11.116-.68 17.161 2.166l.434.204c5.272 2.483 11.248 5.298 18.073 5.712 7.073.428 13.736-2.156 18.749-7.28 4.575-4.677 7.318-10.974 7.724-17.73.58-9.675-3.897-18.672-12.95-26.019zm-2.024 25.117c-.187 3.108-1.453 6.076-3.474 8.142-1.36 1.39-3.695 3.001-7.118 2.796-3.949-.239-8.342-2.309-12.59-4.309l-.438-.207c-12.295-5.787-24.98-5.775-34.801.033l-.518.301c-3.289 1.9-8.792 5.08-9.623 10.847-.448 3.11.53 5.375 1.431 6.728.8 1.202 1.93 2.147 3.253 2.723 4.592 1.996 16.654 7.148 29.458 11.871 11.435 4.217 20.017 10.373 25.51 18.297 5.366 7.74 7.431 16.988 5.815 26.042-1.892 10.595-8.542 20.26-18.246 26.518-7.898 5.093-17.659 8.274-27.486 8.957-13.268.92-28.552-2.654-41.936-9.807-2.739-1.464-4.98-2.959-6.854-4.571-2.793-2.404-6.131-6.286-6.176-11.126-.033-3.449 1.472-6.889 4.024-9.202 2.271-2.058 5.048-2.927 7.878-2.927 3.625 0 7.336 1.428 10.171 3.615 9.36 7.22 19.21 10.326 30.126 9.486 18.14-1.392 23.264-9.062 24.369-15.251 1.196-6.707-4.518-12.915-15.678-17.032l-1.061-.391c-3.207-1.182-6.523-2.405-9.732-3.653-12.674-4.93-26.982-11.035-36.388-21.123-7.756-8.319-10.054-22.468-5.588-34.407 3.185-8.513 10.566-14.292 16.196-17.642 15.313-9.107 35.467-11.725 53.916-7 10.243 2.621 26.239 10.993 25.56 22.292z"/></g></g></g></svg>